<svg xmlns="http://www.w3.org/2000/svg" xmlns:xlink="http://www.w3.org/1999/xlink" width="951.5" height="822.898" viewBox="0 0 951.5 822.898"><defs><style>.a{fill:#fff;}.b{fill:url(#c);}.c{filter:url(#d);}.d{filter:url(#a);}</style><filter id="a" x="0" y="0" width="951.5" height="822.898" filterUnits="userSpaceOnUse"><feOffset dy="3" input="SourceAlpha"/><feGaussianBlur stdDeviation="15" result="b"/><feFlood flood-opacity="0.2"/><feComposite operator="in" in2="b"/><feComposite in="SourceGraphic"/></filter><linearGradient id="c" x1="0.5" x2="0.5" y2="1" gradientUnits="objectBoundingBox"><stop offset="0" stop-color="#ffc661"/><stop offset="1" stop-color="#ff8864"/></linearGradient><filter id="d" x="400.383" y="311.242" width="381.617" height="381.621" filterUnits="userSpaceOnUse"><feOffset dy="3" input="SourceAlpha"/><feGaussianBlur stdDeviation="5" result="e"/><feFlood flood-opacity="0.161"/><feComposite operator="in" in2="e"/><feComposite in="SourceGraphic"/></filter></defs><g transform="translate(-533 -124.602)"><g class="d" transform="matrix(1, 0, 0, 1, 533, 124.6)"><path class="a" d="M88.552,789.5C80.494,777.957-60.094,569.961,193.124,460.1,453.622,347.071,274.8,144.956,545.737,68.521,695.5,26.272,775.11,103.993,833.5,181.715c26.285,34.99,48.272,69.984,70.418,94.028V789.5Z" transform="translate(2.59 -14.6)"/></g><g class="c" transform="matrix(1, 0, 0, 1, 533, 124.6)"><path class="b" d="M548.691,276.28A175.811,175.811,0,1,0,724.5,452.091,175.809,175.809,0,0,0,548.691,276.28Z" transform="translate(42.5 46.96)"/></g></g></svg>