<svg xmlns="http://www.w3.org/2000/svg" xmlns:xlink="http://www.w3.org/1999/xlink" width="217.653" height="198.597" viewBox="0 0 217.653 198.597"><defs><style>.a{fill:#fff;}.b{fill:url(#c);}.c{filter:url(#d);}.d{filter:url(#a);}</style><filter id="a" x="0" y="0" width="217.653" height="198.597" filterUnits="userSpaceOnUse"><feOffset dy="3" input="SourceAlpha"/><feGaussianBlur stdDeviation="15" result="b"/><feFlood flood-opacity="0.102"/><feComposite operator="in" in2="b"/><feComposite in="SourceGraphic"/></filter><linearGradient id="c" x1="0.5" x2="0.5" y2="1" gradientUnits="objectBoundingBox"><stop offset="0" stop-color="#ffc661"/><stop offset="1" stop-color="#ff8864"/></linearGradient><filter id="d" x="84.882" y="71.673" width="82.101" height="82.102" filterUnits="userSpaceOnUse"><feOffset dy="3" input="SourceAlpha"/><feGaussianBlur stdDeviation="5" result="e"/><feFlood flood-opacity="0.161"/><feComposite operator="in" in2="e"/><feComposite in="SourceGraphic"/></filter></defs><g transform="translate(45 42)"><g class="d" transform="matrix(1, 0, 0, 1, -45, -42)"><path class="a" d="M6.837,108.6c-1.194-1.71-22.026-32.53,15.495-48.81,38.6-16.747,12.1-46.7,52.249-58.022,22.191-6.26,33.987,5.256,42.639,16.772,3.895,5.185,7.153,10.37,10.434,13.933V108.6Z" transform="translate(45 42)"/></g><g class="c" transform="matrix(1, 0, 0, 1, -45, -42)"><path class="b" d="M398.934,276.28a26.051,26.051,0,1,0,26.051,26.051A26.051,26.051,0,0,0,398.934,276.28Z" transform="translate(-273 -192.61)"/></g></g></svg>